<svg width="431" height="301" fill="none" xmlns="http://www.w3.org/2000/svg"><rect width="78.708" height="30.991" rx="4" transform="rotate(-45.016 396.35 -335.48)" stroke="#B7D2FF"></rect><path d="M406.049 40.275 298.57 12.095c-5.102-1.34-10.319 1.738-11.655 6.873L225.7 254.361c-1.336 5.135 1.718 10.385 6.82 11.713l107.479 28.166c5.102 1.342 10.319-1.737 11.655-6.872l61.215-235.38c1.336-5.135-1.718-10.385-6.82-11.713Z" fill="#fff"></path><path fill-rule="evenodd" clip-rule="evenodd" d="M313.263 31.448c8.5 2.222 13.59 10.947 11.376 19.48-2.214 8.532-10.905 13.642-19.404 11.42-8.5-2.223-13.589-10.948-11.375-19.48 2.226-8.533 10.904-13.643 19.403-11.42Z" fill="#FFC233"></path><path fill-rule="evenodd" clip-rule="evenodd" d="m301.128 47.249.777-7.204c.025-.166.152-.281.292-.269.051 0 .102.026.14.064l3.41 3.283c.102.09.242.077.344-.026l5.204-5.62c.102-.115.267-.115.357 0a.252.252 0 0 1 .05.102l2.049 7.537c.038.14.153.217.28.179l4.683-1.176c.14-.038.267.064.292.218a.257.257 0 0 1-.025.166l-2.85 6.667c-.051.141-.191.218-.306.18l-14.519-3.807c-.114-.013-.19-.14-.178-.294ZM300.681 51.069a1.069 1.069 0 0 1 1.298-.767l11.974 3.142c.572.154.903.729.763 1.303a1.069 1.069 0 0 1-1.298.767l-11.974-3.143a1.07 1.07 0 0 1-.763-1.302Z" fill="#292931"></path><path d="m357.725 193.048-94.679-24.819a2.083 2.083 0 0 0-2.544 1.507l-2.418 9.299a2.11 2.11 0 0 0 1.489 2.568l94.678 24.819a2.084 2.084 0 0 0 2.545-1.508l2.417-9.299a2.089 2.089 0 0 0-1.488-2.567ZM363.777 169.813l-94.678-24.82a2.086 2.086 0 0 0-2.545 1.508l-2.417 9.299a2.108 2.108 0 0 0 1.488 2.567l94.679 24.82a2.086 2.086 0 0 0 2.545-1.508l2.417-9.299a2.108 2.108 0 0 0-1.489-2.567ZM351.982 215.133l-94.678-24.819a2.084 2.084 0 0 0-2.545 1.507l-2.417 9.299a2.11 2.11 0 0 0 1.489 2.568l94.678 24.819a2.084 2.084 0 0 0 2.545-1.507l2.417-9.299a2.09 2.09 0 0 0-1.489-2.568Z" fill="#F5F5FA"></path><path d="m335.582 47.338 53.517 14.026" stroke="url(#a)" stroke-width="5" stroke-miterlimit="10" stroke-linecap="round"></path><path d="m332.43 59.423 45.488 11.917" stroke="url(#b)" stroke-width="2" stroke-miterlimit="10" stroke-linecap="round"></path><path d="m322.398 85.775-33.476-8.776c-2.227-.587-4.517.767-5.102 3.002l-5.446 20.91c-.585 2.249.751 4.548 2.99 5.123l33.476 8.775c2.227.588 4.517-.766 5.103-3.002l5.433-20.91a4.175 4.175 0 0 0-2.978-5.122ZM376.668 99.992l-33.489-8.776c-2.227-.587-4.517.767-5.103 3.015l-5.433 20.91c-.585 2.248.751 4.548 2.991 5.122l33.489 8.776c2.226.587 4.517-.767 5.102-3.002l5.433-20.91c.585-2.249-.751-4.548-2.99-5.135ZM368.742 146.347l-94.678-24.819a2.084 2.084 0 0 0-2.545 1.507l-2.417 9.3a2.108 2.108 0 0 0 1.488 2.567l94.679 24.819a2.083 2.083 0 0 0 2.544-1.507l2.418-9.299a2.1 2.1 0 0 0-1.489-2.568Z" fill="#F5F5FA"></path><path transform="rotate(-8.18 557.254 -21.66) skewX(-.001)" fill="#E3F0FC" stroke="#E3F0FC" d="M.566.424h14.056v14.041H.566z"></path><path transform="rotate(-8.172 1638.602 -99.22) skewX(.015)" fill="#E3F0FC" stroke="#E3F0FC" d="M.566.424h14.056v14.041H.566z"></path><path transform="rotate(-8.172 459.44 -1398.555) skewX(.015)" fill="#E3F0FC" stroke="#E3F0FC" d="M.566.424h14.056v14.041H.566z"></path><path transform="rotate(-8.172 1540.24 -1476.053) skewX(.015)" fill="#E3F0FC" stroke="#E3F0FC" d="M.566.424h14.056v14.041H.566z"></path><path transform="rotate(-8.172 609.711 -88.758) skewX(.015)" stroke="#E3F0FC" stroke-width="1.5" d="M.849.636H194.06v152.925H.849z"></path><path d="M182.735 80.06 53.069 98.682a3.555 3.555 0 0 0-3.023 4.019l13.898 96.59a3.558 3.558 0 0 0 4.034 3.006l129.666-18.621a3.555 3.555 0 0 0 3.022-4.02l-13.897-96.59a3.558 3.558 0 0 0-4.034-3.006Z" fill="#86B3FE"></path><path d="m61.942 179.862 20.591-21.729a6.027 6.027 0 0 1 7.402-1.063l22.109 12.861c2.739 1.594 6.278.671 7.874-2.064l27.057-46.349c1.735-2.972 5.81-3.557 8.307-1.193l42.49 40.126c.46.432.761 1.009.852 1.635l4.525 31.454c.222 1.54-.863 2.968-2.416 3.191l-131.535 18.89a2.833 2.833 0 0 1-3.212-2.345l-4.782-31.046a2.799 2.799 0 0 1 .738-2.368ZM109.699 139.008c5.585-.802 9.468-5.933 8.673-11.459-.795-5.526-5.967-9.356-11.552-8.554-5.585.802-9.468 5.932-8.673 11.459.795 5.526 5.967 9.356 11.552 8.554ZM250.925 65.147a2 2 0 1 0 3.945-.661l-3.945.66Zm-66.047-50.469a2 2 0 0 0 .085 2.828l13.105 12.338a2 2 0 1 0 2.742-2.912l-11.649-10.968 10.968-11.65a2 2 0 0 0-2.912-2.741l-12.339 13.105Zm68.02 50.138c1.972-.33 1.972-.331 1.972-.333l-.001-.004-.002-.011a.443.443 0 0 1-.006-.036l-.023-.127a41.509 41.509 0 0 0-.477-2.142 61.349 61.349 0 0 0-1.812-5.892c-1.751-4.847-4.71-11.297-9.549-17.7-9.737-12.886-26.975-25.418-56.726-24.52l.12 3.997c28.352-.854 44.395 10.997 53.415 22.934 4.539 6.007 7.326 12.077 8.978 16.648a57.296 57.296 0 0 1 1.693 5.505 34.77 34.77 0 0 1 .425 1.902l.017.09.003.02v.002c0-.001 0-.002 1.973-.333ZM4.163 226.969a2 2 0 1 0-3.962.549l3.962-.549Zm74.16 60.092a2 2 0 0 0 0-2.829l-12.731-12.725a2 2 0 0 0-2.828 2.829l11.316 11.312-11.312 11.316a2 2 0 1 0 2.83 2.828l12.725-12.731ZM2.182 227.244c-1.981.274-1.98.276-1.98.277v.004l.002.013.006.04a19.61 19.61 0 0 0 .11.67c.08.453.205 1.108.387 1.936a70.625 70.625 0 0 0 1.88 6.812c1.846 5.614 5.02 13.108 10.34 20.611 10.695 15.086 29.962 30.047 63.982 30.04l-.001-4c-32.613.007-50.708-14.233-60.718-28.353-5.033-7.099-8.048-14.209-9.802-19.547a66.653 66.653 0 0 1-1.775-6.423 43.715 43.715 0 0 1-.43-2.223 12.124 12.124 0 0 1-.016-.107l-.004-.023v-.003l-1.981.276Z" fill="#E3F0FC"></path><path d="M61.661 51.134c0 5.262-4.265 9.528-9.527 9.528-5.261 0-9.527-4.266-9.527-9.528 0-5.261 4.266-9.527 9.527-9.527 5.262 0 9.527 4.266 9.527 9.527Z" stroke="#4D90FE"></path><rect width="29.145" height="29.145" rx="4" transform="rotate(-45.016 382.185 -10.32)" fill="#86B3FE"></rect><rect width="15.463" height="15.463" rx="4" transform="rotate(-45.016 138.938 -291.155)" fill="#B7D2FF"></rect><defs><linearGradient id="a" x1="331.982" y1="50.423" x2="392.718" y2="58.231" gradientUnits="userSpaceOnUse"><stop stop-color="#FFB400"></stop><stop offset=".53" stop-color="#FCEE21"></stop><stop offset="1" stop-color="#FFB400"></stop></linearGradient><linearGradient id="b" x1="330.801" y1="62.234" x2="379.586" y2="68.506" gradientUnits="userSpaceOnUse"><stop stop-color="#FFB400"></stop><stop offset=".53" stop-color="#FCEE21"></stop><stop offset="1" stop-color="#FFB400"></stop></linearGradient></defs></svg>